<?xml version="1.0" standalone="no"?>
<!DOCTYPE svg PUBLIC "-//W3C//DTD SVG 20010904//EN"
 "http://www.w3.org/TR/2001/REC-SVG-20010904/DTD/svg10.dtd">
<svg version="1.0" xmlns="http://www.w3.org/2000/svg"
 width="568.000000pt" height="565.000000pt" viewBox="0 0 568.000000 565.000000"
 preserveAspectRatio="xMidYMid meet">
<g transform="translate(0.000000,565.000000) scale(0.100000,-0.100000)"
fill="#000000" stroke="none">
<path d="M2565 5133 c-96 -6 -271 -34 -370 -59 -122 -30 -228 -65 -236 -77 -3
-5 -13 -7 -20 -5 -20 4 -144 -51 -311 -140 -24 -12 -62 -36 -85 -52 -23 -17
-44 -30 -48 -30 -3 0 -13 -6 -20 -12 -8 -7 -32 -26 -54 -42 -23 -17 -41 -34
-41 -39 0 -5 14 3 31 17 17 14 34 26 37 26 4 0 21 12 39 28 18 15 54 38 80 52
26 14 60 33 74 44 16 10 32 15 40 11 6 -5 10 -4 6 1 -3 5 12 18 34 28 21 11
39 23 39 28 0 4 8 8 18 8 15 0 37 9 124 52 10 4 26 8 36 8 10 0 22 4 28 9 5 5
43 19 84 31 41 12 98 28 125 36 50 15 182 40 265 52 61 9 515 9 565 0 151 -25
223 -41 314 -68 57 -16 110 -30 117 -30 8 0 14 -4 14 -10 0 -5 7 -7 15 -4 8 4
15 1 15 -5 0 -6 11 -11 24 -11 14 0 28 -4 31 -10 3 -5 13 -10 21 -10 26 0 5
18 -29 25 -17 4 -36 11 -42 15 -9 6 -114 40 -220 70 -65 19 -256 50 -365 60
-109 9 -224 10 -335 3z"/>
<path d="M3608 4941 c18 -12 41 -21 52 -21 11 0 20 -3 20 -8 0 -4 42 -29 94
-56 51 -27 127 -73 167 -102 125 -90 196 -144 234 -177 40 -34 195 -187 195
-192 0 -3 55 -68 83 -97 9 -10 17 -22 17 -28 0 -5 3 -10 8 -10 4 0 18 -18 32
-40 14 -22 28 -40 32 -40 5 0 8 -7 8 -15 0 -8 5 -15 10 -15 6 0 10 -6 10 -13
0 -7 11 -28 25 -47 14 -19 25 -29 25 -24 0 17 -131 215 -161 244 -8 8 -32 36
-51 61 -58 73 -194 201 -318 299 -135 106 -126 100 -170 124 -19 11 -37 23
-40 26 -3 4 -25 17 -50 30 -25 12 -53 30 -64 39 -10 9 -19 15 -20 13 -2 -5
-40 10 -56 23 -8 7 -28 17 -45 23 -16 5 -39 13 -50 17 -11 4 -5 -2 13 -14z"/>
<path d="M2491 4864 c0 -11 3 -14 6 -6 3 7 2 16 -1 19 -3 4 -6 -2 -5 -13z"/>
<path d="M2550 4852 c-40 -20 -70 -70 -63 -107 8 -40 50 -73 106 -85 64 -13
82 -23 74 -43 -9 -25 -70 -32 -108 -13 -39 20 -49 20 -49 2 0 -7 -7 -19 -15
-26 -23 -19 -19 -26 28 -44 116 -44 231 5 231 100 0 47 -24 68 -109 93 -79 24
-92 33 -72 49 25 21 66 24 98 8 18 -9 33 -15 34 -14 0 2 9 15 18 30 9 15 17
29 17 32 0 2 -18 11 -40 20 -52 21 -106 20 -150 -2z m138 -24 c2 -4 8 -6 13
-2 5 3 9 1 9 -4 0 -5 -21 -8 -47 -6 -27 2 -60 -2 -75 -7 -30 -12 -45 -43 -30
-62 6 -8 2 -18 -11 -31 -15 -14 -19 -15 -15 -4 4 9 1 21 -5 27 -6 6 -12 19
-13 28 -2 14 2 12 17 -7 l20 -25 -16 33 c-13 26 -14 36 -4 48 6 8 14 12 16 10
3 -2 19 2 36 9 32 13 99 9 105 -7z m-103 -108 c-7 -11 -4 -12 40 -15 33 -2 65
-16 90 -42 16 -16 16 -17 -1 -24 -17 -7 -17 -8 -2 -8 13 -1 17 -8 14 -23 -2
-16 -10 -23 -24 -22 -18 0 -19 -2 -9 -14 10 -13 8 -14 -12 -7 -16 5 -21 4 -17
-4 8 -12 8 -12 -53 -16 -30 -2 -40 0 -30 6 11 7 9 9 -9 9 -13 0 -20 -4 -17
-10 3 -6 -1 -7 -9 -4 -9 3 -13 10 -10 15 3 5 -1 9 -8 9 -10 0 -9 3 2 10 8 5
17 6 20 2 3 -4 29 -8 57 -9 45 -1 55 2 73 24 16 21 18 29 8 47 -7 11 -12 23
-11 26 1 3 -19 6 -44 8 -69 4 -110 33 -65 45 9 3 18 5 20 6 2 0 0 -3 -3 -9z"/>
<path d="M2610 4836 c0 -2 7 -7 16 -10 8 -3 12 -2 9 4 -6 10 -25 14 -25 6z"/>
<path d="M2570 4820 c-8 -5 -10 -10 -5 -10 6 0 17 5 25 10 8 5 11 10 5 10 -5
0 -17 -5 -25 -10z"/>
<path d="M2785 4831 c0 -40 0 -40 45 -46 l46 -6 -13 -110 c-7 -60 -13 -117
-15 -126 -2 -15 6 -19 43 -21 l46 -3 11 117 c6 64 9 121 5 127 -4 6 12 8 45 5
l50 -5 5 36 c2 20 3 38 0 40 -2 4 -220 29 -258 31 -5 0 -10 -18 -10 -39z m181
-4 c44 -1 74 -21 48 -31 -9 -3 -26 -6 -38 -6 -32 0 -46 -19 -46 -63 0 -21 -3
-36 -7 -34 -5 3 -8 -26 -8 -64 0 -38 -6 -74 -12 -80 -20 -20 -25 25 -14 126 9
74 8 100 -1 115 -7 11 -17 18 -23 16 -5 -2 -18 1 -29 6 -30 16 1 29 50 22 23
-3 59 -6 80 -7z"/>
<path d="M2850 4820 c0 -5 7 -7 15 -4 8 4 15 8 15 10 0 2 -7 4 -15 4 -8 0 -15
-4 -15 -10z"/>
<path d="M2257 4812 c-77 -19 -106 -30 -102 -39 5 -14 66 -268 70 -293 3 -20
11 -19 137 9 l106 24 -5 36 c-3 20 -7 38 -9 39 -1 2 -37 -6 -79 -17 -43 -12
-79 -20 -80 -19 -1 2 -5 15 -9 30 -5 24 -3 28 21 34 105 23 103 22 96 57 -3
18 -7 33 -8 35 -2 2 -30 -4 -63 -12 -75 -20 -69 -20 -74 8 -5 23 0 26 66 42
39 9 74 19 77 23 10 10 -11 71 -24 70 -7 -1 -60 -13 -120 -27z m106 -16 c5
-12 -20 -23 -68 -30 -21 -3 -55 -18 -56 -24 -13 -68 14 -92 86 -75 25 6 48 7
50 3 7 -11 -22 -20 -42 -13 -11 4 -14 3 -9 -5 5 -8 2 -10 -9 -6 -10 4 -24 -2
-36 -15 -11 -11 -17 -21 -13 -21 3 0 1 -7 -6 -15 -10 -12 -10 -15 1 -16 8 0 5
-4 -6 -9 -14 -6 -15 -9 -4 -9 8 -1 21 -7 27 -13 13 -13 95 -21 88 -9 -2 3 11
7 30 8 19 2 34 -1 34 -5 0 -13 -58 -31 -81 -25 -14 4 -20 2 -16 -4 9 -14 -40
-21 -73 -12 -14 4 -18 8 -10 8 12 1 13 3 1 10 -7 5 -11 13 -7 19 3 6 1 12 -5
14 -6 2 -15 33 -20 68 -17 112 -21 130 -31 130 -5 0 -6 5 -3 11 4 6 14 8 22 5
9 -4 11 -2 7 6 -5 8 -2 9 9 5 9 -3 19 -1 23 4 3 6 17 8 31 4 18 -4 23 -2 17 6
-4 8 -3 9 4 5 7 -4 20 -2 29 3 24 14 30 13 36 -3z"/>
<path d="M3201 4664 c-25 -75 -50 -146 -57 -159 -11 -22 -9 -24 32 -35 25 -7
46 -11 48 -9 1 2 9 27 18 54 16 51 40 67 46 30 19 -119 20 -123 69 -139 26 -9
48 -15 49 -13 2 1 -6 36 -16 77 -11 41 -20 76 -20 78 0 1 9 2 21 2 11 0 34 13
50 29 38 38 40 96 6 133 -19 20 -172 89 -195 88 -4 -1 -27 -62 -51 -136z m90
86 c6 0 7 6 4 13 -4 6 1 3 9 -7 9 -11 16 -16 16 -10 0 5 5 2 10 -6 7 -10 10
-11 10 -2 0 9 11 7 39 -7 38 -20 50 -36 58 -76 5 -25 -16 -77 -28 -69 -5 3 -9
-1 -10 -8 0 -7 -5 -3 -11 10 -10 19 -8 25 10 38 12 8 22 21 22 27 0 7 -4 6
-10 -3 -7 -12 -9 -10 -7 8 0 12 6 22 11 22 15 0 -64 39 -83 41 -34 3 -51 -1
-48 -13 1 -7 -5 -12 -13 -13 -8 0 -16 -9 -17 -20 l-3 -20 10 20 c10 18 10 18
6 -4 -6 -31 11 -74 26 -65 7 5 8 3 3 -6 -6 -10 -3 -12 13 -8 12 4 25 2 28 -3
4 -6 11 -6 19 1 10 8 15 8 21 -1 4 -7 3 -14 -2 -16 -34 -12 -36 -30 -10 -109
4 -15 2 -23 -9 -28 -9 -3 -14 -2 -10 3 3 5 1 11 -5 13 -6 2 -12 22 -14 44 -5
46 -24 84 -43 84 -7 0 -13 6 -13 13 0 9 -3 8 -9 -2 -5 -7 -14 -11 -20 -7 -7 5
-9 1 -5 -8 3 -9 1 -16 -6 -16 -6 0 -8 -4 -5 -10 3 -5 2 -10 -4 -10 -5 0 -11
-10 -13 -22 -2 -13 -10 -23 -18 -23 -8 0 -13 7 -11 15 2 8 3 23 3 33 0 9 3 15
8 12 5 -3 11 -1 15 5 3 5 1 10 -4 10 -7 0 -8 6 -2 18 5 9 17 40 27 67 30 85
47 121 51 108 3 -7 9 -13 14 -13z m62 -61 c30 -16 37 -30 26 -51 -10 -18 -36
-22 -75 -12 -20 5 -21 9 -11 40 11 36 25 41 60 23z"/>
<path d="M3360 4726 c0 -3 9 -10 20 -16 11 -6 20 -8 20 -6 0 3 -9 10 -20 16
-11 6 -20 8 -20 6z"/>
<path d="M3409 4613 c-13 -16 -12 -17 4 -4 16 13 21 21 13 21 -2 0 -10 -8 -17
-17z"/>
<path d="M1925 4761 c-6 -11 13 -26 22 -17 4 3 1 6 -6 6 -7 0 -9 5 -6 10 3 6
4 10 1 10 -3 0 -7 -4 -11 -9z"/>
<path d="M1940 4701 c-25 -10 -64 -27 -88 -37 l-42 -19 18 -35 c10 -19 41 -87
67 -150 27 -63 51 -117 52 -119 3 -5 83 30 83 36 0 2 -11 26 -25 53 -14 27
-25 52 -25 55 0 15 37 1 83 -34 39 -28 57 -36 72 -31 11 5 33 13 49 19 l30 12
-71 47 -71 47 19 24 c34 42 19 105 -31 134 -35 21 -63 21 -120 -2z m99 -13 c8
3 11 0 7 -7 -5 -7 -1 -9 10 -4 14 5 16 3 11 -11 -4 -10 -3 -15 3 -11 13 8 13
-1 -1 -27 -8 -15 -8 -19 0 -13 15 8 7 -41 -9 -60 -8 -9 -8 -15 0 -20 6 -3 8
-11 4 -16 -3 -5 -2 -8 3 -7 4 1 24 -8 43 -20 19 -12 31 -22 25 -22 -5 0 -3 -5
5 -10 11 -7 9 -9 -10 -6 -37 3 -80 27 -73 39 4 6 0 8 -11 4 -9 -4 -15 -3 -12
2 11 17 -30 18 -62 1 -24 -13 -28 -19 -17 -24 8 -3 15 -11 15 -18 0 -9 -3 -8
-10 2 -7 10 -10 11 -10 2 0 -7 6 -15 14 -18 9 -3 12 -12 9 -21 -4 -11 -2 -14
5 -9 14 9 15 -3 2 -24 -8 -13 -11 -12 -23 5 -8 10 -12 26 -9 34 3 9 1 12 -6 7
-7 -4 -13 -1 -14 6 0 7 -2 18 -3 23 -2 6 -3 16 -4 23 0 7 -5 11 -10 8 -5 -3
-11 3 -14 14 -3 13 -1 18 6 14 8 -5 7 -2 0 7 -16 17 -17 43 -1 33 7 -4 8 -3 4
5 -6 9 -11 9 -22 0 -11 -9 -14 -8 -14 2 0 8 -6 26 -14 41 -13 25 -13 27 15 38
16 7 41 13 55 13 13 0 22 2 19 5 -10 10 49 30 65 22 8 -4 21 -5 29 -2z"/>
<path d="M1972 4664 c-18 -8 -38 -11 -44 -8 -6 4 -8 3 -5 -3 3 -5 -3 -15 -13
-23 -18 -13 -18 -14 1 -52 11 -21 24 -38 30 -38 6 0 7 -4 4 -10 -9 -14 8 -12
24 3 8 6 11 7 8 1 -3 -6 0 -11 8 -11 8 0 11 5 8 10 -4 6 1 8 11 4 14 -6 17 -3
12 9 -4 11 -2 15 8 11 8 -3 20 2 28 11 12 15 11 16 -4 3 -11 -8 -18 -9 -18 -3
0 6 5 14 10 17 16 10 12 29 -12 55 -13 14 -22 28 -20 32 1 5 1 8 0 7 -2 0 -18
-7 -36 -15z m48 -43 c5 -11 10 -22 10 -25 0 -7 -61 -46 -72 -46 -6 0 -41 62
-36 65 52 28 84 30 98 6z"/>
<path d="M1325 4645 c-16 -13 -27 -26 -24 -29 3 -3 21 8 40 24 41 35 27 40
-16 5z"/>
<path d="M3549 4597 c-73 -49 -102 -164 -60 -233 31 -51 86 -86 140 -92 67 -6
114 12 155 60 57 66 58 154 4 223 -51 65 -173 87 -239 42z m149 -16 c2 -6 8
-8 13 -5 13 8 50 -26 43 -38 -3 -4 0 -7 7 -6 14 3 37 -61 38 -104 1 -15 -6
-34 -15 -43 -9 -9 -14 -18 -11 -22 8 -7 -16 -32 -25 -26 -5 2 -8 -3 -8 -12 0
-11 -5 -15 -16 -11 -10 4 -13 2 -8 -6 5 -8 2 -9 -9 -5 -9 3 -19 2 -22 -3 -7
-11 -81 -2 -110 13 -32 16 -70 60 -71 82 -1 11 -5 29 -9 39 -5 12 -5 17 1 13
6 -3 8 9 6 30 -3 23 -1 33 6 29 5 -3 15 1 22 9 11 13 10 14 -6 9 -18 -7 -18
-7 -1 13 9 11 14 22 11 26 -8 7 45 22 65 18 7 -1 10 2 7 8 -4 6 11 8 41 6 26
-1 49 -8 51 -14z"/>
<path d="M3586 4555 c6 -14 3 -16 -17 -10 -17 4 -20 3 -10 -3 12 -8 11 -13 -1
-31 -8 -11 -18 -18 -22 -14 -4 4 -4 -1 0 -11 5 -13 4 -17 -4 -12 -8 5 -10 2
-6 -9 4 -8 0 -23 -7 -32 -12 -14 -12 -16 0 -8 11 6 13 4 8 -9 -4 -9 -3 -15 2
-12 5 3 12 -1 15 -10 3 -8 2 -13 -2 -10 -4 2 -14 0 -22 -6 -13 -8 -12 -9 2 -5
9 3 19 -1 22 -9 3 -8 11 -14 18 -14 9 0 8 3 -2 10 -10 7 -11 10 -2 10 7 0 15
-7 18 -15 9 -22 71 -40 90 -24 8 6 17 9 20 6 8 -8 26 10 58 57 19 28 23 43 17
64 -4 15 -6 32 -4 39 2 6 -14 22 -36 35 -23 14 -39 26 -37 29 2 2 -13 4 -35 4
-21 0 -39 -4 -39 -9 0 -5 -7 -3 -15 4 -13 11 -14 10 -9 -5z m104 -30 c57 -29
66 -87 23 -135 -41 -44 -83 -49 -122 -13 -37 33 -44 77 -17 118 28 43 70 54
116 30z"/>
<path d="M3587 4319 c7 -7 15 -10 18 -7 3 3 -2 9 -12 12 -14 6 -15 5 -6 -5z"/>
<path d="M3804 4592 c18 -21 29 -23 27 -5 -1 4 -4 8 -8 8 -5 0 -15 4 -23 9 -9
6 -7 1 4 -12z"/>
<path d="M1172 4509 c-67 -65 -154 -161 -204 -224 -4 -5 -20 -25 -35 -44 -27
-34 -42 -78 -23 -66 5 3 10 11 10 16 0 13 44 73 87 119 18 19 33 38 33 42 0
11 214 224 231 231 11 4 11 6 -1 6 -8 1 -52 -35 -98 -80z"/>
<path d="M1682 4567 c-123 -45 -168 -174 -96 -275 30 -43 56 -59 113 -72 62
-15 159 37 200 106 l20 34 -39 20 -39 20 -16 -31 c-21 -39 -90 -72 -119 -57
-60 31 -82 80 -56 129 12 22 61 49 90 49 17 0 20 6 20 45 0 40 -2 45 -22 44
-13 0 -38 -6 -56 -12z m42 -33 c4 -9 4 -19 2 -22 -10 -9 -36 8 -36 23 0 20 26
19 34 -1z m-44 -37 c-10 -9 -11 -9 -6 3 4 8 0 6 -8 -4 -9 -11 -16 -23 -16 -28
0 -4 -5 -8 -11 -8 -5 0 -7 6 -3 13 4 6 3 8 -1 4 -9 -8 -12 -19 -20 -73 -4 -24
2 -40 25 -69 16 -21 27 -42 23 -49 -4 -7 -1 -6 9 1 8 7 18 10 22 6 12 -12 70
-9 85 5 7 7 19 11 26 8 7 -2 21 5 32 17 18 22 18 22 -2 7 -13 -9 -11 -6 3 8
17 16 28 20 35 13 11 -11 2 -45 -10 -38 -11 7 -33 -19 -25 -29 4 -4 2 -4 -5
-1 -6 4 -18 0 -26 -8 -29 -29 -63 -36 -130 -26 -5 0 -6 5 -3 10 4 5 -3 7 -15
4 -22 -6 -43 17 -66 70 -10 22 -10 26 0 21 7 -4 4 2 -6 13 -14 16 -15 22 -5
26 10 4 10 7 1 14 -17 12 5 73 26 73 8 0 11 3 8 7 -11 11 14 32 30 26 10 -4
14 -2 10 4 -4 6 -1 13 5 16 19 6 33 -23 18 -36z"/>
<path d="M1625 4290 c21 -24 26 -25 19 -6 -3 8 -13 17 -22 21 -13 5 -13 2 3
-15z"/>
<path d="M2765 4559 c-4 -6 -5 -12 -2 -15 2 -3 7 2 10 11 7 17 1 20 -8 4z"/>
<path d="M3885 4368 c-63 -35 -96 -88 -97 -159 0 -60 23 -102 81 -146 107 -82
260 -10 269 127 4 69 -17 112 -76 157 -38 28 -51 33 -100 33 -31 0 -66 -6 -77
-12z m170 -50 c30 -27 45 -49 50 -75 11 -54 12 -82 3 -77 -4 3 -8 -4 -8 -15 0
-29 -47 -81 -67 -74 -10 4 -14 2 -10 -4 4 -6 -1 -14 -10 -17 -9 -4 -20 -1 -25
6 -4 7 -8 9 -8 3 0 -5 -11 -11 -25 -11 -14 -1 -23 2 -20 6 2 4 -7 6 -20 4 -14
-1 -23 2 -19 7 3 5 -1 9 -8 9 -8 1 -5 7 7 16 18 13 21 13 32 -1 9 -14 15 -14
33 -5 12 7 31 10 41 7 10 -3 17 -1 14 4 -4 5 7 17 23 26 16 10 27 24 24 32 -3
9 0 11 7 6 8 -4 12 -2 10 6 -4 34 1 51 14 43 7 -5 5 -1 -6 8 -10 9 -19 26 -20
37 0 11 -4 18 -8 15 -4 -2 -12 10 -18 26 -5 17 -16 30 -23 30 -9 0 -9 -3 2
-11 11 -8 9 -9 -10 -3 -22 6 -47 6 -97 2 -7 -1 -9 -6 -6 -11 4 -6 0 -8 -10 -4
-9 3 -16 3 -16 -1 3 -20 -2 -32 -11 -27 -6 4 -9 1 -8 -7 2 -7 -2 -12 -8 -11
-8 1 -10 -6 -6 -19 3 -13 1 -19 -5 -15 -14 9 -9 -28 6 -47 7 -8 10 -19 7 -24
-3 -6 1 -15 9 -22 8 -7 15 -9 15 -6 0 4 5 4 12 0 8 -5 6 -11 -7 -20 -14 -11
-20 -11 -32 1 -7 8 -13 17 -13 21 1 4 -3 10 -10 14 -32 20 -16 154 20 165 11
3 19 10 17 16 -4 18 48 37 97 36 41 -2 56 -8 91 -39z m-58 -29 c18 -6 38 -24
49 -45 18 -33 18 -35 -1 -71 -38 -69 -120 -78 -160 -16 -29 44 0 116 55 136
22 8 24 8 57 -4z"/>
<path d="M3990 4340 c-13 -8 -12 -10 3 -10 9 0 17 5 17 10 0 12 -1 12 -20 0z"/>
<path d="M4030 4109 c0 -5 5 -7 10 -4 6 3 10 8 10 11 0 2 -4 4 -10 4 -5 0 -10
-5 -10 -11z"/>
<path d="M3905 4090 c-3 -5 -1 -10 4 -10 6 0 11 5 11 10 0 6 -2 10 -4 10 -3 0
-8 -4 -11 -10z"/>
<path d="M3965 4080 c-3 -6 1 -7 9 -4 18 7 21 14 7 14 -6 0 -13 -4 -16 -10z"/>
<path d="M1746 4362 c-3 -5 1 -9 9 -9 8 0 12 4 9 9 -3 4 -7 8 -9 8 -2 0 -6 -4
-9 -8z"/>
<path d="M2059 4313 c-13 -16 -12 -17 4 -4 16 13 21 21 13 21 -2 0 -10 -8 -17
-17z"/>
<path d="M2565 4308 c-98 -10 -282 -54 -312 -73 -12 -8 -29 -15 -37 -15 -23 0
-131 -53 -117 -58 6 -2 26 5 44 15 18 11 45 23 61 27 15 4 47 15 70 25 42 19
144 43 254 62 83 13 317 10 417 -7 103 -17 201 -45 295 -84 41 -17 84 -34 95
-37 11 -4 22 -9 25 -12 3 -4 43 -28 90 -55 47 -27 87 -52 90 -55 3 -4 20 -17
37 -30 41 -28 206 -192 241 -240 15 -20 30 -38 34 -41 21 -17 128 -207 151
-270 4 -10 6 -11 6 -2 1 21 -40 111 -77 172 -94 149 -200 268 -353 395 -50 42
-199 131 -264 159 -22 9 -48 21 -57 26 -10 6 -26 10 -36 10 -9 0 -26 6 -37 14
-24 16 -153 50 -246 65 -91 15 -277 19 -374 9z"/>
<path d="M1296 4257 l-26 -34 31 -79 c17 -43 36 -83 40 -89 14 -15 10 -28 -6
-21 -9 3 -56 11 -106 17 l-91 12 -27 -31 -28 -30 130 -107 129 -108 29 29 29
29 -74 60 c-41 33 -73 61 -72 63 2 1 35 -3 74 -9 70 -12 72 -11 90 11 19 23
19 25 -1 74 -11 28 -27 59 -35 69 -11 13 -12 17 -2 17 7 0 43 -27 81 -61 l69
-61 24 29 c13 15 25 31 27 34 3 5 -158 142 -248 211 -7 6 -20 -2 -37 -25z m79
-43 c9 -14 20 -22 25 -19 5 3 16 -5 24 -17 9 -12 16 -19 16 -16 0 4 16 -8 35
-28 35 -35 44 -54 25 -54 -5 0 -10 6 -10 13 0 8 -4 7 -10 -3 -9 -13 -11 -12
-9 6 1 11 -36 32 -45 27 -5 -4 -6 -1 -2 6 10 16 -19 25 -42 12 -17 -9 -20 -23
-13 -48 1 -2 1 -6 0 -9 0 -4 5 -11 13 -15 10 -7 10 -9 -2 -9 -12 -1 -11 -3 3
-11 12 -7 16 -17 11 -31 -4 -15 -3 -18 6 -13 8 5 11 3 8 -6 -7 -20 -109 -19
-126 1 -8 8 -11 9 -7 3 4 -8 -1 -13 -13 -13 -29 0 -37 -30 -12 -47 11 -8 18
-19 15 -24 -4 -5 3 -9 14 -9 11 0 23 -5 27 -12 4 -7 3 -8 -4 -4 -7 4 -12 5
-12 2 0 -3 16 -13 36 -22 26 -12 32 -19 22 -25 -10 -7 -10 -9 2 -9 13 0 13 -2
1 -9 -11 -7 -22 -2 -38 15 -13 14 -23 21 -23 17 0 -4 -11 4 -25 19 -13 15 -42
39 -62 55 -21 15 -48 37 -61 49 l-23 20 21 19 c15 14 20 15 20 4 0 -11 2 -11
10 1 6 9 13 11 18 5 4 -5 30 -11 57 -12 28 -1 59 -4 70 -7 11 -3 26 -1 34 3
14 9 24 71 12 71 -4 0 -20 30 -35 66 -19 48 -24 70 -16 79 15 18 46 8 65 -21z
m160 -124 c-3 -5 -1 -11 5 -15 15 -9 2 -25 -14 -19 -8 3 -13 16 -12 28 0 14 6
22 13 19 7 -3 11 -9 8 -13z"/>
<path d="M1200 3960 c-9 -6 -10 -10 -3 -10 6 0 15 5 18 10 8 12 4 12 -15 0z"/>
<path d="M871 4154 c-12 -27 -11 -28 4 -12 10 9 16 21 13 28 -2 7 -10 -1 -17
-16z"/>
<path d="M1985 4109 c-122 -75 -135 -83 -135 -91 0 -5 -4 -8 -8 -8 -11 0 -192
-173 -192 -183 0 -4 -11 -19 -25 -33 -14 -14 -25 -29 -25 -34 0 -5 -11 -20
-25 -34 -23 -23 -85 -120 -85 -132 0 -11 26 22 36 46 6 14 27 44 45 67 19 22
45 56 59 74 14 18 31 38 38 45 6 7 12 18 12 24 0 6 3 9 8 7 9 -4 52 40 44 47
-3 3 1 6 9 6 8 0 30 17 50 38 20 21 51 49 70 62 19 13 36 27 39 31 8 11 159
99 170 99 6 0 10 5 10 10 0 16 -10 12 -95 -41z"/>
<path d="M4124 4032 l-132 -95 22 -34 c11 -18 25 -33 30 -33 4 0 25 14 46 30
21 17 42 30 46 30 5 0 22 -20 37 -45 16 -25 32 -47 35 -49 4 -2 20 7 35 20
l28 24 -35 49 -36 49 26 17 c29 19 31 17 76 -55 12 -19 23 -37 24 -38 1 -2 18
7 37 20 l35 24 -64 89 c-35 50 -67 91 -72 91 -4 1 -66 -41 -138 -94z m158 35
c11 -21 10 -21 -8 -7 -10 8 2 -7 28 -33 33 -32 46 -52 41 -64 -5 -12 -3 -14 8
-8 11 6 12 5 2 -5 -7 -8 -14 -12 -16 -9 -38 50 -46 63 -42 69 3 4 -2 11 -11
14 -10 4 -13 2 -8 -7 4 -6 -3 -3 -15 8 -13 11 -26 19 -30 19 -3 -1 -5 2 -3 8
1 5 -2 7 -7 3 -6 -3 -8 -12 -4 -20 3 -8 0 -15 -7 -15 -6 0 -8 -4 -5 -10 3 -6
-1 -7 -10 -4 -13 5 -13 9 -3 22 11 13 10 14 -9 4 -25 -14 -41 -34 -20 -26 8 3
18 1 22 -5 3 -6 1 -11 -4 -11 -16 0 -13 -16 5 -34 8 -9 12 -16 8 -16 -4 0 2
-9 14 -20 12 -12 22 -28 22 -38 0 -13 -3 -12 -16 6 -8 12 -21 22 -29 22 -9 0
-12 6 -8 15 3 10 0 15 -8 13 -8 -2 -13 2 -12 8 1 6 -4 11 -12 11 -8 0 -11 -5
-8 -10 3 -6 1 -7 -5 -3 -6 4 -23 -1 -37 -10 -14 -9 -25 -13 -25 -8 0 4 -6 0
-13 -10 -12 -17 -14 -17 -27 1 -8 10 -11 15 -6 11 5 -4 16 3 26 15 16 19 20
20 36 7 17 -14 18 -14 6 2 -12 15 -6 22 50 64 35 25 73 51 86 57 12 6 22 14
22 19 0 14 19 -1 32 -25z m-74 -192 c-3 -3 -9 2 -12 12 -6 14 -5 15 5 6 7 -7
10 -15 7 -18z"/>
<path d="M4133 3985 c0 -7 6 -11 14 -8 7 3 13 6 13 8 0 2 -6 5 -13 8 -8 3 -14
-1 -14 -8z"/>
<path d="M4310 3986 c0 -2 7 -7 16 -10 8 -3 12 -2 9 4 -6 10 -25 14 -25 6z"/>
<path d="M833 4095 c-9 -25 4 -29 17 -6 7 15 7 21 0 21 -6 0 -13 -7 -17 -15z"/>
<path d="M791 4026 c-12 -18 -21 -38 -21 -45 0 -6 -5 -11 -11 -11 -5 0 -8 -4
-4 -9 3 -5 1 -12 -5 -16 -5 -3 -10 -14 -10 -23 1 -9 15 10 32 43 16 33 37 68
46 78 8 9 10 17 4 17 -6 0 -20 -15 -31 -34z"/>
<path d="M4630 4040 c0 -8 11 -35 25 -59 14 -23 25 -49 25 -56 0 -8 6 -20 13
-27 12 -12 49 -85 75 -150 7 -16 17 -28 23 -28 8 0 6 7 -4 18 -10 10 -17 24
-17 30 0 13 -49 121 -62 137 -5 6 -24 42 -43 80 -19 39 -34 63 -35 55z"/>
<path d="M3843 3995 c0 -7 6 -11 14 -8 7 3 13 6 13 8 0 2 -6 5 -13 8 -8 3 -14
-1 -14 -8z"/>
<path d="M4000 3990 c-9 -6 -10 -10 -3 -10 6 0 15 5 18 10 8 12 4 12 -15 0z"/>
<path d="M720 3903 c-1 -7 -3 -17 -4 -22 0 -5 -4 -13 -8 -17 -5 -4 -8 -14 -8
-23 0 -9 7 -3 15 13 9 17 14 37 12 45 -3 10 -6 11 -7 4z"/>
<path d="M4283 3792 l-141 -76 19 -38 c11 -21 22 -38 25 -38 5 0 278 146 292
155 5 4 -40 75 -46 74 -4 0 -71 -35 -149 -77z m149 29 c3 9 7 7 12 -6 4 -11 4
-16 0 -13 -4 4 -18 -2 -32 -12 -13 -11 -31 -20 -38 -20 -8 0 -14 -5 -14 -11 0
-5 -4 -7 -10 -4 -5 3 -23 -4 -39 -16 -17 -12 -34 -18 -42 -14 -7 5 -10 4 -6
-1 7 -13 -59 -58 -72 -49 -15 9 -14 21 5 39 18 18 38 11 30 -11 -4 -8 -1 -11
5 -8 6 4 8 13 6 20 -7 16 25 43 42 37 8 -3 11 0 7 7 -5 7 -1 9 8 5 9 -3 16 -1
16 5 0 13 55 43 63 34 3 -3 14 2 23 12 12 12 19 13 24 5 6 -9 9 -9 12 1z"/>
<path d="M4010 3846 c0 -3 9 -10 20 -16 11 -6 20 -8 20 -6 0 3 -9 10 -20 16
-11 6 -20 8 -20 6z"/>
<path d="M1213 3825 c0 -8 4 -12 9 -9 5 3 6 10 3 15 -9 13 -12 11 -12 -6z"/>
<path d="M2506 3789 c19 -29 32 -59 29 -67 -3 -8 4 -25 15 -37 13 -14 17 -25
11 -29 -12 -8 13 -73 39 -100 14 -15 16 -23 8 -36 -9 -14 -6 -26 11 -54 13
-20 20 -36 16 -36 -4 0 -34 24 -67 54 -84 77 -114 89 -207 85 -61 -3 -89 -10
-141 -36 -36 -18 -80 -45 -99 -61 l-35 -29 90 4 c62 3 85 1 74 -6 -24 -16 -6
-22 68 -24 45 -1 68 -6 65 -13 -5 -14 63 -34 118 -34 44 -1 44 -1 22 -19 -15
-13 -46 -20 -108 -25 -86 -6 -89 -7 -166 -61 -98 -70 -130 -126 -137 -244 -4
-79 6 -144 23 -139 5 2 17 23 25 48 22 66 58 112 80 105 10 -3 21 -1 25 5 3 5
14 10 24 10 10 0 34 16 55 36 20 19 40 33 45 30 4 -3 30 8 56 25 56 35 74 29
28 -9 -46 -38 -76 -128 -70 -207 5 -60 27 -145 37 -145 3 0 11 26 18 59 7 32
21 70 32 83 10 14 22 38 26 54 4 16 15 38 24 49 10 11 29 43 44 72 24 48 42
70 51 62 7 -8 -47 -253 -88 -399 -24 -85 -53 -188 -63 -227 l-18 -73 -56 0
c-48 0 -57 3 -65 22 -24 54 -113 47 -130 -10 -5 -17 -12 -32 -15 -32 -4 0 -19
37 -35 83 -16 45 -30 87 -32 94 -6 17 38 12 60 -7 9 -8 17 -22 17 -32 0 -10 6
-18 13 -18 21 0 8 71 -17 91 -13 11 -25 14 -30 8 -6 -5 -15 -9 -20 -9 -6 0 -4
5 4 10 10 7 11 10 2 10 -7 0 -15 -7 -18 -15 -4 -8 -10 -15 -16 -15 -5 0 -6 5
-3 10 4 7 -2 9 -17 5 -15 -3 -32 2 -48 16 -14 11 -20 18 -14 15 7 -3 14 1 18
9 4 12 -4 15 -44 15 -27 0 -52 -4 -55 -10 -3 -6 4 -10 17 -10 13 0 30 -5 38
-10 13 -8 13 -10 -2 -10 -20 0 -75 -63 -60 -68 12 -4 84 42 77 49 -2 3 5 5 15
5 25 0 25 -4 -1 -32 -24 -25 -19 -62 13 -91 20 -18 21 -18 14 4 -7 22 12 93
24 93 3 0 12 -28 19 -62 7 -34 21 -84 31 -111 16 -43 17 -53 6 -76 -7 -14 -11
-32 -9 -38 4 -10 -22 -13 -105 -13 l-109 0 5 -25 c4 -23 8 -25 40 -19 33 6 35
6 29 -17 -4 -13 -7 -66 -7 -118 l0 -93 -87 3 c-85 4 -88 3 -91 -18 l-3 -23
905 0 c894 0 906 0 906 20 0 17 -8 20 -91 22 l-90 3 -2 108 c-2 113 -2 113 46
109 12 -1 17 6 17 23 0 24 -3 25 -62 25 l-63 0 3 106 c2 59 -1 111 -6 116 -16
16 -66 17 -88 3 -19 -12 -30 -8 -114 46 -52 32 -99 59 -105 59 -6 0 -79 -40
-162 -89 -99 -58 -165 -90 -192 -94 -37 -5 -56 -14 -106 -51 -7 -5 -19 -7 -27
-3 -13 5 -12 20 8 114 66 303 84 397 95 491 7 56 15 102 18 102 17 0 42 -85
36 -120 -4 -25 -2 -41 5 -45 13 -8 6 -99 -11 -143 -14 -36 -4 -38 26 -6 34 38
72 112 80 156 11 58 -19 157 -60 196 -21 20 -36 28 -40 21 -4 -6 0 -16 9 -22
33 -25 74 -197 47 -197 -5 0 -11 23 -15 51 -7 52 -31 123 -49 147 -9 11 -17 7
-39 -19 -15 -17 -29 -39 -29 -48 -1 -17 -4 -44 -13 -126 -3 -27 -9 -61 -13
-75 -3 -14 -5 -31 -4 -39 1 -7 -1 -11 -6 -8 -4 3 -8 -9 -9 -26 -3 -76 -21
-140 -37 -131 -8 5 -8 2 1 -7 6 -7 12 -20 12 -29 0 -13 -2 -13 -11 0 -7 11 -8
6 -4 -19 4 -20 3 -31 -2 -28 -5 3 -8 -6 -5 -21 2 -15 -2 -40 -9 -57 -43 -106
1 -171 77 -116 22 15 62 33 90 39 32 7 104 43 193 96 l142 85 105 -65 104 -66
0 -64 c0 -35 -3 -64 -6 -64 -4 0 -22 13 -40 30 -41 35 -104 54 -157 46 -42 -7
-112 -39 -123 -57 -3 -6 -27 -24 -52 -40 -45 -29 -48 -29 -192 -29 l-146 0 4
36 c3 28 1 35 -9 32 -21 -7 -24 -67 -4 -74 14 -6 14 -8 -2 -26 -15 -17 -18
-38 -18 -133 0 -62 -3 -108 -7 -102 -6 9 -8 9 -8 0 0 -8 -15 -13 -42 -13 -40
0 -41 1 -22 16 10 8 13 12 5 8 -11 -6 -13 -2 -7 17 9 32 10 179 1 201 -7 18 2
41 13 34 7 -4 12 26 15 89 1 17 6 33 11 37 5 3 10 19 12 35 1 15 4 35 6 43 2
8 10 43 18 77 8 34 18 59 23 56 4 -3 8 1 6 8 -4 32 2 70 10 65 5 -3 9 4 9 17
0 12 14 76 31 142 17 66 31 129 31 140 0 17 2 18 11 5 8 -12 10 -10 5 10 -2
14 -1 41 3 60 6 28 4 38 -13 53 -11 10 -26 15 -34 12 -12 -5 -13 -3 -2 10 9
11 10 19 3 26 -12 12 -44 -1 -82 -35 -13 -11 -21 -16 -17 -9 16 29 -64 22
-102 -10 -8 -6 -21 -12 -30 -14 -10 -1 -24 -11 -34 -22 -17 -22 -34 -29 -22
-9 4 7 3 8 -5 4 -6 -4 -9 -12 -6 -17 4 -5 -8 -12 -25 -15 -17 -4 -33 -11 -36
-15 -3 -5 -16 -9 -30 -9 -15 0 -23 4 -19 11 4 6 14 8 22 5 8 -3 11 -2 8 3 -5
9 36 57 83 96 23 19 23 19 17 -1 -6 -18 -6 -18 6 1 6 11 13 21 14 23 6 8 34
-12 28 -21 -4 -6 -1 -7 7 -2 10 6 10 11 -3 20 -23 16 -12 24 26 19 25 -4 29
-2 17 6 -13 9 -12 11 5 9 11 -1 22 0 25 1 3 1 14 3 25 5 11 2 35 7 53 10 22 4
32 3 28 -4 -4 -5 -1 -13 5 -17 8 -4 9 -3 5 4 -4 7 -2 12 4 12 6 0 9 4 5 9 -3
5 -1 12 5 16 5 3 10 11 10 16 0 13 -62 39 -75 31 -5 -3 1 7 14 21 16 17 27 23
31 16 5 -7 9 -5 13 6 4 9 3 14 -2 11 -4 -3 -17 4 -27 17 -19 22 -19 22 1 5 19
-16 24 -18 45 -18 5 0 6 -8 3 -17 -5 -13 -2 -15 11 -10 10 4 20 7 24 7 13 0
-117 94 -163 118 -40 20 -66 25 -132 27 -45 1 -80 -2 -77 -6 2 -4 -1 -9 -8
-11 -7 -3 -5 -7 6 -11 10 -4 15 -3 11 4 -6 9 14 7 69 -8 11 -3 16 -1 12 5 -3
6 2 9 11 7 10 -2 35 -7 56 -10 29 -5 36 -9 28 -19 -8 -9 -3 -12 20 -10 23 2
29 -1 25 -12 -3 -8 -2 -13 2 -10 4 2 14 1 22 -5 12 -7 11 -9 -5 -10 -11 0 -29
-2 -39 -4 -23 -4 -79 22 -71 34 3 5 -8 8 -24 7 -17 -1 -28 1 -25 6 3 4 -9 5
-26 2 -20 -4 -30 -3 -30 5 0 7 -5 9 -10 6 -6 -4 -22 1 -36 10 -15 9 -35 15
-45 12 -11 -3 -19 0 -19 8 0 20 46 28 150 26 85 -2 101 -6 153 -33 32 -17 79
-49 105 -71 26 -23 41 -34 35 -27 -19 20 -16 38 7 45 24 8 26 28 5 49 -17 17
-19 26 -5 26 5 0 16 -15 24 -32 8 -18 15 -26 15 -18 2 35 -29 150 -54 203 -31
64 -28 88 5 36 36 -59 61 -141 63 -205 1 -34 4 -61 7 -59 3 1 14 -7 25 -18 11
-11 15 -17 10 -14 -15 8 -14 -37 1 -51 9 -8 15 -8 24 3 7 8 17 15 23 15 5 0
16 8 24 18 9 10 12 11 7 2 -4 -8 3 -5 15 8 21 21 48 31 37 14 -3 -5 1 -9 9 -9
11 0 12 4 4 13 -13 16 35 50 64 46 12 -2 17 1 13 7 -4 6 -1 9 6 6 7 -2 43 -6
80 -8 50 -3 68 -1 72 9 3 8 12 11 20 8 8 -3 17 -1 21 5 4 7 -1 8 -12 4 -10 -3
-15 -3 -11 2 4 4 0 14 -10 22 -9 8 -2 6 17 -4 56 -30 72 -40 84 -53 10 -10 8
-11 -7 -3 -12 7 -34 7 -65 0 -25 -6 -61 -11 -80 -12 -20 -1 -40 -10 -47 -20
-8 -10 -17 -16 -20 -12 -4 3 -20 -1 -37 -9 -26 -14 -29 -14 -24 -1 5 13 0 13
-35 -1 -22 -9 -42 -22 -45 -29 -8 -20 -23 -16 -17 5 4 13 2 12 -7 -3 -7 -11
-16 -23 -22 -26 -5 -4 -10 -22 -12 -42 -4 -35 -3 -35 42 -42 26 -4 76 -16 112
-27 58 -18 75 -30 138 -94 40 -40 75 -85 79 -99 4 -14 12 -24 18 -22 7 3 13
-6 14 -20 1 -13 -2 -22 -7 -19 -5 4 -5 -9 -1 -30 11 -48 -8 -40 -26 11 -7 22
-14 41 -14 42 0 1 8 0 18 -3 15 -5 15 -4 2 8 -8 7 -28 32 -44 56 -57 84 -116
127 -224 162 -82 27 -103 30 -118 20 -16 -10 -16 -11 -1 -6 9 3 17 1 17 -5 0
-5 6 -9 13 -7 19 3 58 -12 52 -22 -3 -4 2 -10 10 -13 10 -4 12 -1 8 11 -6 15
-4 15 15 -1 11 -11 25 -16 30 -13 5 3 22 -7 37 -22 20 -18 26 -21 22 -9 -6 17
-6 17 18 0 13 -10 22 -24 20 -31 -3 -7 1 -12 8 -10 19 4 77 -62 106 -122 l12
-25 -20 23 c-20 23 -37 30 -25 10 5 -7 3 -8 -5 -4 -7 5 -10 15 -6 23 5 13 3
14 -10 3 -14 -11 -17 -10 -22 8 -3 12 -9 19 -14 16 -8 -5 -13 9 -10 28 0 4 -8
5 -18 3 -11 -2 -30 5 -42 16 -12 10 -31 19 -41 19 -12 0 -16 4 -12 12 4 6 3 8
-3 5 -6 -4 -16 0 -23 8 -7 8 -9 15 -4 15 5 0 -6 9 -24 20 -18 11 -38 20 -44
20 -6 0 -20 8 -31 18 -11 9 -17 11 -13 5 4 -7 2 -13 -3 -13 -24 0 -9 -17 26
-29 20 -7 55 -31 78 -52 24 -22 49 -37 56 -34 8 3 18 -4 24 -17 6 -14 18 -22
30 -21 13 1 26 -9 38 -28 9 -17 26 -33 37 -36 11 -3 20 -10 20 -15 0 -5 8 -7
19 -3 15 4 22 -3 36 -37 9 -24 20 -63 24 -88 7 -44 7 -45 20 -20 20 34 41 119
41 160 0 19 -11 66 -24 103 -19 54 -35 77 -72 110 -89 79 -102 86 -218 103
l-109 17 37 19 c20 10 36 23 36 29 0 7 11 9 31 5 42 -8 122 12 115 30 -4 11 4
12 39 7 52 -7 88 3 65 17 -24 15 47 12 110 -4 48 -12 73 -14 59 -3 -2 2 -31
25 -64 52 -76 61 -151 95 -229 102 -88 8 -181 -31 -239 -98 -23 -27 -44 -49
-47 -49 -3 0 -4 44 -2 97 l3 98 -48 70 c-47 67 -127 131 -190 150 -20 6 -19 2
13 -46z m64 -31 c0 -5 6 -6 13 -2 9 6 9 4 -1 -8 -10 -13 -10 -18 -1 -24 7 -4
9 -3 6 3 -12 19 21 23 35 5 11 -15 11 -15 -3 -5 -13 11 -18 9 -29 -15 l-14
-27 -10 38 c-5 20 -13 37 -18 37 -4 0 -8 4 -8 10 0 5 7 7 15 4 8 -4 15 -10 15
-16z m46 -130 c5 -13 7 -27 6 -32 -2 -4 3 -14 9 -22 7 -8 9 -17 5 -21 -3 -3
-6 -1 -6 6 0 7 -5 9 -12 5 -7 -4 -8 -3 -4 4 4 7 2 12 -4 12 -7 0 -10 7 -6 15
3 8 1 15 -4 15 -5 0 -6 7 -3 17 5 12 3 14 -7 8 -9 -5 -11 -4 -6 3 11 18 24 14
32 -10z m-259 -84 c-3 -3 -12 -4 -19 -1 -8 3 -5 6 6 6 11 1 17 -2 13 -5z m83
2 c0 -2 -9 -6 -20 -9 -11 -3 -18 -1 -14 4 5 9 34 13 34 5z m34 -14 c2 -4 -4
-8 -14 -8 -10 0 -16 4 -14 8 3 4 9 8 14 8 5 0 11 -4 14 -8z m576 0 c0 -5 -13
-7 -30 -4 -16 2 -30 6 -30 8 0 2 14 4 30 4 17 0 30 -4 30 -8z m-153 -18 c-3
-3 -12 -4 -19 -1 -8 3 -5 6 6 6 11 1 17 -2 13 -5z m-366 -21 c13 -16 12 -17
-3 -4 -17 13 -22 21 -14 21 2 0 10 -8 17 -17z m583 -3 c7 -7 -25 -10 -87 -10
-112 0 -138 -10 -229 -84 -47 -38 -57 -43 -63 -29 -3 10 -3 14 1 10 4 -3 28
13 54 36 26 23 71 55 101 70 50 27 59 28 134 22 44 -3 84 -10 89 -15z m-279
-9 c-3 -6 -11 -11 -16 -11 -5 0 -4 6 3 14 14 16 24 13 13 -3z m-469 -196 c-11
-8 -26 -15 -33 -15 -7 0 -13 -3 -13 -7 0 -5 -17 -19 -38 -33 -20 -14 -41 -31
-45 -38 -5 -7 -12 -10 -17 -7 -5 3 -21 -15 -35 -40 -26 -43 -46 -65 -26 -26 6
10 8 21 6 23 -10 10 45 59 58 52 8 -5 8 -2 -2 9 -14 18 -7 22 27 18 7 -1 11 3
10 9 -3 12 89 69 112 69 11 0 10 -3 -4 -14z m469 5 c3 -6 -1 -7 -9 -4 -18 7
-21 14 -7 14 6 0 13 -4 16 -10z m-320 -26 c-44 -7 -95 -17 -113 -23 -53 -16
-128 -68 -177 -123 -45 -50 -67 -59 -46 -20 18 34 123 121 176 148 31 14 80
27 125 32 106 11 131 1 35 -14z m485 -14 c0 -5 8 -6 18 -4 9 3 27 -4 40 -16
12 -11 22 -18 22 -15 0 4 20 -15 45 -41 25 -25 45 -51 45 -57 0 -6 8 -19 18
-31 17 -20 17 -20 -9 0 -15 11 -24 25 -21 33 4 10 1 12 -8 6 -8 -5 -11 -4 -7
2 4 6 -4 15 -17 21 -14 6 -27 19 -30 30 -4 12 -32 30 -71 47 -69 29 -90 45
-50 37 14 -2 25 -8 25 -12z m-390 -46 c0 -4 -25 -33 -54 -65 -37 -40 -62 -78
-77 -119 -12 -33 -26 -60 -31 -60 -12 0 -4 34 21 92 27 63 141 185 141 152z
m-457 -131 c-5 -12 -3 -14 7 -8 10 6 12 4 6 -10 -5 -14 -4 -15 7 -7 8 7 18 7
27 2 12 -8 12 -10 -3 -10 -11 0 -15 -4 -11 -12 5 -8 2 -9 -10 -5 -10 4 -15 3
-11 -3 3 -5 0 -21 -8 -36 -13 -26 -14 -26 -20 -5 -3 11 -2 21 2 21 4 0 6 13 3
30 -4 29 2 60 12 60 3 0 2 -7 -1 -17z m380 -24 c-8 -8 -13 -7 -18 2 -6 8 -4
10 5 4 10 -6 12 -4 6 11 -6 15 -5 17 5 7 9 -10 10 -16 2 -24z m-61 -107 c-7
-2 -12 -8 -12 -14 0 -5 -6 -15 -13 -23 -11 -11 -14 -8 -14 15 0 18 5 26 12 23
7 -2 16 4 20 14 6 14 8 15 13 4 3 -8 0 -17 -6 -19z m329 -25 c-13 -13 -26 -3
-16 12 3 6 11 8 17 5 6 -4 6 -10 -1 -17z m569 -471 c0 -100 -5 -112 -44 -102
-22 5 -23 10 -22 101 l1 95 33 0 32 0 0 -94z m-1074 44 c34 -13 22 -25 -31
-33 -27 -5 -35 -3 -25 3 8 5 11 10 6 10 -5 0 -3 7 4 15 15 18 12 18 46 5z
m160 -110 l-10 -50 -114 0 c-62 0 -111 4 -108 8 3 5 2 22 -3 38 -12 45 8 53
135 54 l111 0 -11 -50z m760 -2 c24 -18 44 -36 44 -40 0 -5 -75 -8 -166 -8
l-167 0 44 35 c55 44 90 56 153 50 35 -3 60 -13 92 -37z m-1020 -38 c1 -17 -3
-30 -8 -30 -5 0 -6 5 -3 10 3 6 -1 10 -9 10 -22 0 -20 27 2 33 9 3 17 5 17 6
0 0 0 -13 1 -29z m720 -9 c-4 -5 0 -12 6 -14 8 -3 6 -6 -4 -6 -18 -1 -24 10
-11 22 9 10 15 8 9 -2z m404 -21 c8 -5 3 -7 -13 -7 -15 1 -27 6 -27 10 0 5 -5
5 -12 1 -7 -4 -8 -3 -4 5 4 6 12 9 17 6 5 -4 9 0 9 7 0 10 2 10 9 -1 5 -7 14
-17 21 -21z m107 -15 c0 -8 -4 -12 -9 -9 -4 3 -8 9 -8 15 0 5 4 9 8 9 5 0 9
-7 9 -15z m-991 -51 c-3 -26 -6 -78 -6 -116 l0 -68 -191 2 -190 3 0 105 c0 58
0 108 0 113 1 4 89 7 197 7 l197 0 -7 -46z m681 39 l291 -6 -3 -106 -3 -106
-421 -3 -421 -2 0 108 c0 60 3 112 7 115 8 9 178 9 550 0z"/>
<path d="M685 3809 c-4 -6 -5 -12 -2 -15 2 -3 7 2 10 11 7 17 1 20 -8 4z"/>
<path d="M957 3763 c-9 -20 -15 -38 -14 -39 1 -1 67 -36 146 -78 108 -56 147
-73 153 -63 7 9 76 139 96 178 2 4 -61 39 -71 39 -1 0 -13 -25 -27 -55 -14
-30 -29 -55 -34 -55 -5 0 -55 25 -111 55 -57 30 -107 55 -112 55 -5 0 -16 -17
-26 -37z m72 -11 c3 -6 30 -22 60 -36 47 -22 51 -25 33 -35 -15 -8 -32 -3 -86
25 -61 32 -89 55 -50 40 14 -5 15 -4 4 9 -11 13 -9 15 9 12 13 -2 26 -9 30
-15z m257 -31 c-9 -17 -16 -33 -16 -36 1 -21 -1 -25 -10 -20 -5 3 -10 1 -10
-5 0 -6 -4 -9 -9 -6 -5 3 -15 -2 -22 -12 -13 -15 -12 -16 3 -4 11 9 18 10 23
2 3 -5 1 -10 -5 -10 -6 0 -8 -5 -4 -12 4 -7 3 -8 -4 -4 -7 4 -12 2 -12 -4 0
-6 -13 -2 -29 9 -15 11 -31 17 -35 14 -4 -4 -4 0 -1 9 5 13 2 15 -13 11 -31
-8 -34 13 -5 26 22 10 29 10 38 -2 5 -7 16 -12 24 -9 8 3 11 0 7 -7 -4 -6 -5
-11 -2 -11 3 0 18 18 32 40 15 23 31 37 38 33 6 -4 4 2 -4 12 -8 10 -10 16 -3
12 6 -4 15 -2 18 4 15 24 15 -1 1 -30z"/>
<path d="M1075 3700 c27 -12 43 -12 25 0 -8 5 -22 9 -30 9 -10 0 -8 -3 5 -9z"/>
<path d="M658 3747 c-16 -30 -22 -49 -33 -99 -3 -16 0 -14 10 7 8 17 14 41 15
55 0 18 3 21 9 12 6 -10 10 -4 15 19 8 43 4 45 -16 6z"/>
<path d="M2486 3737 c3 -10 9 -15 12 -12 3 3 0 11 -7 18 -10 9 -11 8 -5 -6z"/>
<path d="M4790 3704 c0 -8 20 -83 28 -104 3 -8 4 -18 4 -22 -1 -5 3 -8 8 -8 6
0 10 -10 10 -22 0 -12 3 -18 6 -15 4 3 -6 45 -21 92 -25 76 -35 99 -35 79z"/>
<path d="M4370 3650 c-74 -27 -141 -50 -147 -50 -15 0 -16 -2 -4 -32 5 -13 12
-31 15 -41 5 -16 12 -15 83 12 43 16 87 32 97 37 11 4 -14 -35 -57 -89 l-76
-96 14 -34 c8 -19 11 -37 8 -41 -14 -14 21 -4 168 48 85 29 154 58 153 62 -2
26 -17 74 -23 74 -3 0 -42 -14 -86 -30 -44 -16 -83 -30 -88 -30 -4 0 24 40 63
89 l70 88 -14 39 c-7 21 -19 40 -27 41 -8 1 -75 -20 -149 -47z m138 5 c-2 -6
-7 -9 -11 -7 -5 1 -6 -2 -2 -7 3 -6 13 -7 22 -4 14 5 13 2 -3 -28 -10 -18 -29
-42 -42 -52 -12 -10 -19 -23 -16 -29 4 -7 2 -8 -4 -4 -11 7 -17 -6 -13 -27 1
-5 -3 -6 -8 -3 -5 3 -12 -5 -15 -19 -7 -26 -20 -32 -32 -14 -3 6 -1 16 6 22
10 9 11 9 5 -2 -6 -10 -4 -12 4 -7 9 6 9 11 0 22 -9 11 -8 15 4 20 19 7 41 59
32 74 -4 6 -13 9 -21 6 -7 -3 -16 -1 -19 4 -4 6 -12 10 -18 10 -7 0 -6 -4 3
-10 13 -9 13 -10 0 -10 -8 0 -28 -7 -44 -15 -23 -12 -26 -13 -17 -1 8 10 9 16
1 21 -6 4 -10 3 -9 -2 5 -21 -14 -39 -39 -37 -36 2 -36 2 -22 19 7 9 19 14 27
11 7 -3 13 -1 13 3 0 16 32 22 48 9 13 -10 14 -10 8 0 -5 8 2 14 23 18 17 4
28 10 25 15 -3 5 2 6 11 3 9 -4 24 1 35 11 10 9 23 14 29 11 5 -4 13 -2 16 4
8 13 28 9 23 -5z m67 -195 c-3 -5 -2 -10 3 -10 5 0 9 -7 9 -15 0 -21 -10 -19
-24 4 -10 15 -10 21 0 24 18 8 19 8 12 -3z m-167 -24 c32 -20 41 -22 55 -11
10 7 27 10 39 7 14 -3 19 -1 14 6 -8 13 0 14 29 3 19 -8 19 -8 -3 -20 -12 -7
-28 -9 -34 -5 -7 4 -8 3 -4 -4 7 -12 -61 -35 -77 -25 -6 3 -7 1 -4 -4 8 -13
-15 -23 -49 -23 -14 0 -22 -4 -19 -10 9 -15 -9 -12 -31 6 -10 8 -12 12 -4 8
12 -6 13 -4 3 7 -15 16 -17 33 -3 24 9 -6 15 8 11 29 -1 5 6 3 15 -5 10 -8 15
-9 11 -2 -7 11 0 43 9 43 3 0 21 -11 42 -24z"/>
<path d="M4391 3408 c5 -10 11 -18 12 -18 2 0 3 8 3 18 0 10 -6 19 -13 19 -8
0 -9 -6 -2 -19z"/>
<path d="M606 3611 c-4 -7 -5 -15 -2 -18 9 -9 19 4 14 18 -4 11 -6 11 -12 0z"/>
<path d="M1060 3600 c-8 -5 -10 -10 -5 -10 6 0 17 5 25 10 8 5 11 10 5 10 -5
0 -17 -5 -25 -10z"/>
<path d="M615 3570 c3 -5 8 -10 11 -10 2 0 4 5 4 10 0 6 -5 10 -11 10 -5 0 -7
-4 -4 -10z"/>
<path d="M1463 3550 c-6 -16 -8 -30 -4 -30 3 0 12 14 18 30 6 17 8 30 4 30 -3
0 -12 -13 -18 -30z"/>
<path d="M590 3556 c0 -9 -7 -30 -15 -46 -13 -25 -13 -29 -1 -24 14 5 32 71
22 82 -3 3 -6 -2 -6 -12z"/>
<path d="M976 3551 l-109 -6 -18 -52 c-12 -37 -14 -53 -6 -56 7 -3 70 -50 141
-106 71 -56 133 -101 138 -101 4 0 8 9 8 21 0 11 5 30 11 41 12 21 5 32 -38
56 -9 5 -7 21 6 62 18 53 20 55 53 53 33 -2 35 0 50 48 l16 49 -71 -2 c-40 -1
-121 -4 -181 -7z m205 -31 c-2 -8 -4 -20 -4 -26 0 -6 -10 -9 -23 -6 -21 4 -65
-28 -63 -45 0 -4 -4 -9 -10 -11 -5 -2 -8 5 -6 16 2 10 -1 25 -6 33 -5 8 -9 11
-9 7 0 -4 -11 -3 -25 2 -13 5 -27 6 -29 1 -3 -5 -17 -7 -30 -6 -14 2 -30 -2
-35 -9 -13 -16 -10 -58 5 -52 6 2 22 -6 35 -17 28 -25 75 -31 83 -10 4 9 1 11
-6 7 -7 -4 -8 -3 -4 4 12 20 39 15 31 -5 -13 -29 -7 -54 16 -80 21 -21 21 -25
8 -39 -14 -13 -18 -13 -40 6 l-24 21 28 -17 c15 -9 27 -14 27 -11 0 3 -17 16
-37 28 -21 13 -42 29 -46 36 -4 7 -17 13 -27 13 -10 0 -25 8 -32 18 -7 10 -25
27 -40 36 -16 10 -28 25 -28 33 0 8 -4 12 -9 8 -13 -7 -3 47 10 60 6 6 68 10
144 10 74 0 127 3 117 7 -12 6 -10 7 8 5 16 -2 24 -8 21 -17z m-134 -82 c-6
-18 -13 -35 -14 -37 -1 -1 -17 9 -36 23 -19 14 -39 26 -45 26 -7 0 -12 5 -12
10 0 6 26 10 59 10 l59 0 -11 -32z"/>
<path d="M1095 3480 c-3 -5 -1 -10 4 -10 6 0 11 5 11 10 0 6 -2 10 -4 10 -3 0
-8 -4 -11 -10z"/>
<path d="M967 3379 c7 -7 15 -10 18 -7 3 3 -2 9 -12 12 -14 6 -15 5 -6 -5z"/>
<path d="M1010 3370 c0 -5 5 -10 11 -10 5 0 7 5 4 10 -3 6 -8 10 -11 10 -2 0
-4 -4 -4 -10z"/>
<path d="M1056 3343 c-6 -14 -5 -15 5 -6 7 7 10 15 7 18 -3 3 -9 -2 -12 -12z"/>
<path d="M4567 3549 c7 -7 15 -10 18 -7 3 3 -2 9 -12 12 -14 6 -15 5 -6 -5z"/>
<path d="M4181 3524 c0 -11 3 -14 6 -6 3 7 2 16 -1 19 -3 4 -6 -2 -5 -13z"/>
<path d="M1436 3495 c-3 -9 -6 -24 -5 -33 0 -9 5 -4 10 12 9 32 6 48 -5 21z"/>
<path d="M4850 3500 c0 -5 5 -10 10 -10 6 0 10 5 10 10 0 6 -4 10 -10 10 -5 0
-10 -4 -10 -10z"/>
<path d="M4279 3463 c-13 -16 -12 -17 4 -4 16 13 21 21 13 21 -2 0 -10 -8 -17
-17z"/>
<path d="M561 3455 c-1 -11 -4 -31 -7 -45 -5 -22 -4 -23 6 -7 6 10 9 30 7 45
-3 18 -5 20 -6 7z"/>
<path d="M4868 3435 c2 -19 6 -35 8 -35 2 0 4 16 4 35 0 19 -4 35 -8 35 -4 0
-6 -16 -4 -35z"/>
<path d="M1407 3430 c-3 -11 -1 -20 4 -20 5 0 9 9 9 20 0 11 -2 20 -4 20 -2 0
-6 -9 -9 -20z"/>
<path d="M1231 3424 c0 -11 3 -14 6 -6 3 7 2 16 -1 19 -3 4 -6 -2 -5 -13z"/>
<path d="M2940 3430 c-9 -6 -10 -10 -3 -10 6 0 15 5 18 10 8 12 4 12 -15 0z"/>
<path d="M4021 3424 c0 -11 3 -14 6 -6 3 7 2 16 -1 19 -3 4 -6 -2 -5 -13z"/>
<path d="M1392 3380 c0 -14 2 -19 5 -12 2 6 2 18 0 25 -3 6 -5 1 -5 -13z"/>
<path d="M4037 3379 c4 -13 8 -18 11 -10 2 7 -1 18 -6 23 -8 8 -9 4 -5 -13z"/>
<path d="M537 3341 c-4 -17 -3 -21 5 -13 5 5 8 16 6 23 -3 8 -7 3 -11 -10z"/>
<path d="M1375 3340 c-3 -5 -1 -10 4 -10 6 0 11 5 11 10 0 6 -2 10 -4 10 -3 0
-8 -4 -11 -10z"/>
<path d="M4050 3343 c0 -5 5 -15 10 -23 8 -12 10 -11 10 8 0 12 -4 22 -10 22
-5 0 -10 -3 -10 -7z"/>
<path d="M4892 3325 c0 -16 2 -22 5 -12 2 9 2 23 0 30 -3 6 -5 -1 -5 -18z"/>
<path d="M850 3326 c0 -2 7 -7 16 -10 8 -3 12 -2 9 4 -6 10 -25 14 -25 6z"/>
<path d="M529 3294 c0 -10 -2 -26 -4 -35 -1 -8 -6 -42 -9 -75 -4 -32 -9 -66
-12 -76 -3 -9 -1 -19 4 -22 9 -5 36 213 27 222 -3 3 -5 -3 -6 -14z"/>
<path d="M4431 3288 c-83 -44 -115 -157 -74 -260 9 -24 17 -44 18 -46 1 -1 44
3 94 9 75 10 90 15 87 28 -3 9 -8 41 -11 71 l-7 56 -35 -4 c-34 -4 -35 -6 -30
-37 5 -29 2 -34 -20 -40 -33 -8 -36 -4 -37 51 -1 40 3 49 32 75 70 63 162 15
162 -84 0 -18 -5 -38 -10 -43 -7 -7 2 -16 30 -27 38 -15 42 -15 48 1 15 37 6
136 -16 178 -43 84 -148 116 -231 72z m124 -12 c10 -2 21 -9 23 -16 3 -8 0
-10 -8 -5 -9 5 -11 4 -6 -4 6 -9 11 -9 22 0 11 9 19 8 34 -6 18 -17 19 -20 4
-36 -9 -10 -11 -19 -6 -23 6 -3 12 0 15 6 9 26 19 -3 23 -66 3 -58 2 -66 -14
-66 -14 0 -15 2 -2 10 10 6 11 10 3 10 -7 0 -13 5 -13 11 0 5 6 7 13 3 10 -6
10 -4 0 7 -7 7 -13 24 -13 37 0 13 -7 30 -15 39 -13 12 -13 18 -3 30 10 12 9
15 -7 12 -11 -1 -37 6 -59 15 -27 12 -42 14 -49 7 -15 -15 -30 -14 -20 2 4 6
-11 -3 -33 -20 -23 -18 -44 -29 -48 -26 -4 4 -4 -1 0 -11 4 -11 3 -17 -2 -14
-5 3 -10 -20 -11 -53 -1 -41 2 -58 10 -56 7 1 11 -4 9 -11 -2 -10 9 -13 40
-10 39 3 44 7 53 36 13 45 25 40 25 -12 0 -42 -1 -44 -37 -50 -77 -12 -93 -8
-107 26 -9 20 -12 53 -9 88 3 30 6 62 6 71 1 11 9 16 24 14 12 -1 20 1 18 6
-3 4 1 10 7 13 7 3 2 3 -12 0 l-25 -6 23 17 c12 9 27 13 34 9 7 -4 8 -3 4 4
-7 12 5 16 32 13 6 -1 12 3 12 9 0 6 10 8 23 5 13 -4 32 -7 42 -9z"/>
<path d="M4594 3238 c-4 -7 -4 -10 1 -6 4 4 15 2 24 -5 14 -11 14 -10 2 6 -16
20 -18 21 -27 5z"/>
<path d="M4418 3023 c7 -3 16 -2 19 1 4 3 -2 6 -13 5 -11 0 -14 -3 -6 -6z"/>
<path d="M1352 3263 c-17 -57 -33 -145 -27 -151 6 -7 12 11 30 102 17 84 15
110 -3 49z"/>
<path d="M4072 3275 c0 -16 2 -22 5 -12 2 9 2 23 0 30 -3 6 -5 -1 -5 -18z"/>
<path d="M4898 3266 c-3 -14 -2 -23 3 -21 4 3 10 -34 14 -81 4 -47 11 -81 15
-74 4 6 3 30 -1 53 -4 23 -8 60 -9 82 0 51 -15 78 -22 41z"/>
<path d="M838 3254 c-15 -8 -34 -27 -42 -42 -13 -25 -42 -190 -34 -197 2 -1
68 -10 148 -20 80 -9 155 -19 166 -22 19 -4 22 0 26 39 3 24 4 44 3 45 -1 2
-26 6 -55 10 l-54 8 3 57 c3 69 -18 112 -62 128 -40 14 -67 12 -99 -6z m107
-27 c7 -9 15 -14 18 -10 4 3 7 2 7 -4 0 -6 -7 -16 -15 -23 -11 -10 -18 -9 -30
4 -18 17 -28 19 -62 10 -13 -4 -20 -10 -17 -15 3 -5 0 -9 -6 -9 -6 0 -9 -4 -5
-9 3 -5 0 -13 -6 -16 -5 -4 -8 -13 -6 -19 3 -7 -1 -13 -9 -13 -10 0 -12 6 -8
16 4 9 6 27 5 40 0 14 2 22 5 18 8 -7 34 17 34 31 0 24 77 23 95 -1z m33 -106
c-2 -37 -8 -58 -18 -63 -10 -5 -7 -7 10 -6 40 3 98 -13 104 -29 3 -8 1 -11 -4
-8 -6 3 -10 1 -10 -5 0 -6 -10 -8 -22 -5 -13 3 -45 7 -73 10 -27 3 -79 8 -114
12 l-63 6 6 35 c7 43 15 52 27 29 17 -29 60 -45 97 -35 18 5 32 15 32 24 0 9
5 12 13 8 9 -6 9 -4 1 7 -5 8 -9 29 -8 47 2 43 2 44 15 36 6 -3 9 -29 7 -63z
m-50 5 c3 -47 2 -48 -20 -42 -13 3 -33 6 -45 6 -20 0 -22 4 -16 33 8 44 22 59
52 55 24 -3 26 -8 29 -52z"/>
<path d="M1016 3237 c3 -10 9 -15 12 -12 3 3 0 11 -7 18 -10 9 -11 8 -5 -6z"/>
<path d="M4080 3223 c0 -12 5 -25 10 -28 13 -8 13 15 0 35 -8 12 -10 11 -10
-7z"/>
<path d="M2830 3210 c0 -6 7 -10 15 -10 8 0 15 2 15 4 0 2 -7 6 -15 10 -8 3
-15 1 -15 -4z"/>
<path d="M1102 3201 c-11 -7 -11 -9 0 -14 9 -3 15 1 15 9 0 8 -1 14 -1 14 -1
0 -7 -4 -14 -9z"/>
<path d="M4102 3160 c0 -14 2 -19 5 -12 2 6 2 18 0 25 -3 6 -5 1 -5 -13z"/>
<path d="M2316 3142 c-3 -5 1 -9 9 -9 8 0 12 4 9 9 -3 4 -7 8 -9 8 -2 0 -6 -4
-9 -8z"/>
<path d="M4105 3121 c-3 -5 -1 -12 5 -16 5 -3 10 1 10 9 0 18 -6 21 -15 7z"/>
<path d="M1318 3055 c2 -19 6 -35 8 -35 2 0 4 16 4 35 0 19 -4 35 -8 35 -4 0
-6 -16 -4 -35z"/>
<path d="M4112 3060 c-1 -19 3 -53 7 -75 l9 -40 0 35 c1 19 -3 53 -7 75 l-9
40 0 -35z"/>
<path d="M499 2999 c-1 -120 3 -219 11 -294 4 -39 5 26 2 145 -5 214 -11 291
-13 149z"/>
<path d="M4924 3025 c3 -22 6 -82 6 -134 0 -52 3 -92 6 -88 12 11 6 239 -7
251 -9 8 -10 2 -5 -29z"/>
<path d="M1315 2860 c2 -85 8 -168 14 -185 10 -27 10 -26 5 15 -4 25 -10 108
-14 185 l-8 140 3 -155z"/>
<path d="M4350 2976 c0 -2 8 -10 18 -17 15 -13 16 -12 3 4 -13 16 -21 21 -21
13z"/>
<path d="M4116 2848 c-6 -27 -16 -144 -16 -173 0 -22 -5 -43 -50 -190 -16 -56
-30 -105 -30 -110 0 -27 31 54 51 137 13 51 26 95 30 98 10 8 32 260 23 260
-2 0 -6 -10 -8 -22z"/>
<path d="M2096 2809 c-10 -15 -12 -28 -6 -45 11 -27 4 -30 -22 -10 -10 7 -31
11 -48 8 -32 -5 -42 -22 -12 -22 9 0 30 -7 46 -15 15 -8 32 -12 37 -9 13 8 11
-10 -3 -26 -9 -10 -6 -9 7 1 25 20 75 17 87 -4 9 -18 98 -61 106 -52 8 8 -41
56 -53 52 -5 -2 -19 -1 -30 3 -15 5 -8 9 25 14 38 6 42 9 26 18 -10 5 -36 7
-57 4 -47 -8 -49 -2 -8 23 24 15 27 20 14 25 -21 8 -51 -8 -65 -35 -13 -23
-30 -17 -25 9 17 86 11 104 -19 61z"/>
<path d="M830 2767 c-14 -7 -31 -25 -38 -41 -29 -60 35 -126 101 -104 33 12
56 56 49 93 -9 48 -68 75 -112 52z m20 -28 c0 9 6 11 18 6 9 -4 22 -8 29 -8 6
0 9 -7 5 -15 -3 -10 -1 -13 6 -8 20 12 14 -29 -8 -54 -13 -15 -20 -18 -20 -9
0 9 -3 10 -8 3 -7 -12 -44 -4 -43 9 1 4 -3 18 -9 32 -6 16 -6 25 0 25 6 0 9 3
9 8 -3 19 2 25 11 12 7 -12 10 -12 10 -1z"/>
<path d="M887 2686 c-4 -10 -1 -13 8 -9 8 3 12 9 9 14 -7 12 -11 11 -17 -5z"/>
<path d="M4538 2768 c-49 -17 -54 -113 -8 -138 26 -14 72 -12 92 4 46 34 35
116 -17 136 -31 12 -31 12 -67 -2z m50 -30 c9 -9 12 -9 12 1 0 7 5 9 11 5 8
-5 8 -9 -1 -14 -8 -5 -7 -12 5 -24 9 -9 12 -16 6 -16 -6 0 -8 -7 -5 -15 4 -10
-3 -18 -21 -25 -30 -12 -49 -5 -41 16 3 8 -4 18 -17 24 -20 10 -20 10 -5 -3
10 -8 15 -17 11 -20 -10 -10 -25 -8 -18 2 3 5 0 13 -5 16 -8 5 -6 13 6 26 9
10 13 19 8 19 -12 0 18 20 32 20 5 0 15 -5 22 -12z"/>
<path d="M4566 2697 c3 -10 9 -15 12 -12 3 3 0 11 -7 18 -10 9 -11 8 -5 -6z"/>
<path d="M4921 2728 c1 -37 2 -39 9 -18 12 36 12 60 0 60 -5 0 -10 -19 -9 -42z"/>
<path d="M1331 2624 c0 -11 3 -14 6 -6 3 7 2 16 -1 19 -3 4 -6 -2 -5 -13z"/>
<path d="M4908 2611 c-3 -18 -1 -34 3 -36 10 -7 18 41 9 55 -4 7 -9 -1 -12
-19z"/>
<path d="M523 2589 c15 -99 45 -242 46 -216 1 16 -8 74 -19 128 -11 55 -18
104 -15 109 3 5 0 12 -6 16 -9 5 -10 -5 -6 -37z"/>
<path d="M1351 2590 c-1 -31 11 -76 43 -165 14 -38 25 -60 25 -49 1 12 -9 43
-21 70 -12 27 -27 76 -34 109 -6 33 -12 49 -13 35z"/>
<path d="M4895 2524 c-4 -22 -11 -55 -16 -74 -5 -19 -8 -48 -8 -65 2 -27 2
-27 6 -5 2 14 11 58 19 99 8 40 13 76 10 78 -3 3 -8 -12 -11 -33z"/>
<path d="M4001 2360 c0 -8 -15 -44 -31 -78 -35 -75 -39 -91 -9 -42 12 19 21
36 20 38 -1 1 6 16 14 33 9 17 14 38 12 47 -4 13 -5 13 -6 2z"/>
<path d="M1430 2353 c0 -20 32 -96 52 -122 10 -13 15 -28 11 -34 -3 -6 -1 -7
5 -3 7 4 12 3 12 -3 0 -22 119 -189 161 -227 13 -12 31 -30 40 -40 16 -18 96
-92 137 -125 47 -39 157 -110 210 -135 31 -16 59 -31 62 -34 3 -4 14 -9 25
-13 11 -3 51 -17 88 -31 37 -14 77 -26 87 -26 11 0 20 -4 20 -8 0 -10 144 -37
188 -35 17 1 32 -2 32 -6 0 -7 75 -13 155 -14 79 0 173 9 168 16 -2 4 -48 5
-101 2 -104 -7 -292 12 -405 40 -102 26 -217 67 -217 76 0 5 -6 9 -12 9 -21 0
-160 73 -232 122 -10 7 -54 43 -97 80 -121 103 -230 227 -280 318 -13 24 -30
52 -38 61 -7 9 -26 45 -42 80 -16 35 -29 58 -29 52z"/>
<path d="M4835 2278 c-27 -101 -28 -111 -6 -55 18 45 37 127 29 127 -2 0 -12
-33 -23 -72z"/>
<path d="M581 2324 c0 -11 3 -14 6 -6 3 7 2 16 -1 19 -3 4 -6 -2 -5 -13z"/>
<path d="M595 2290 c-7 -11 12 -79 26 -94 13 -14 11 -3 -7 39 -8 21 -13 44
-10 51 6 16 0 19 -9 4z"/>
<path d="M3905 2172 c-21 -40 -62 -101 -80 -117 -18 -17 -47 -66 -42 -72 3 -2
11 6 18 19 7 12 30 41 51 63 21 22 38 46 38 53 0 6 4 12 8 12 9 0 36 69 30 75
-2 2 -13 -12 -23 -33z"/>
<path d="M631 2167 c-1 -21 29 -90 36 -83 3 3 1 11 -3 18 -5 7 -14 29 -20 48
-7 19 -12 27 -13 17z"/>
<path d="M4792 2145 c-14 -31 -15 -35 -3 -35 9 0 25 49 18 56 -2 2 -9 -7 -15
-21z"/>
<path d="M4761 2069 c-6 -18 -9 -34 -7 -36 2 -2 9 10 15 28 6 18 9 34 7 36 -2
2 -9 -10 -15 -28z"/>
<path d="M670 2065 c0 -12 32 -67 36 -63 4 5 -25 68 -32 68 -2 0 -4 -2 -4 -5z"/>
<path d="M4056 2038 c3 -5 10 -6 15 -3 13 9 11 12 -6 12 -8 0 -12 -4 -9 -9z"/>
<path d="M4117 2039 c7 -7 15 -10 18 -7 3 3 -2 9 -12 12 -14 6 -15 5 -6 -5z"/>
<path d="M4721 1979 c-7 -23 -10 -43 -8 -46 3 -2 8 9 12 26 4 17 11 33 16 36
11 8 12 25 1 25 -5 0 -14 -18 -21 -41z"/>
<path d="M4010 1937 c-30 -39 -70 -88 -89 -109 -32 -37 -33 -39 -15 -52 16
-12 22 -9 52 30 19 24 37 44 41 44 3 0 42 -30 86 -66 127 -104 193 -154 203
-154 5 0 12 7 16 15 4 10 -39 51 -139 131 -110 89 -142 120 -132 128 6 6 25
25 41 43 24 27 27 35 16 48 -7 8 -15 15 -19 14 -3 0 -31 -32 -61 -72z"/>
<path d="M713 1949 c8 -21 13 -26 15 -14 5 21 -5 45 -17 45 -5 0 -4 -13 2 -31z"/>
<path d="M1237 1853 c-145 -119 -154 -129 -140 -145 15 -17 20 -14 80 38 l64
56 62 -66 c55 -59 66 -66 100 -66 50 0 93 23 112 60 20 38 19 68 -3 111 -20
39 -101 139 -112 139 -4 0 -77 -57 -163 -127z m211 18 c23 -32 42 -69 42 -81
0 -31 -52 -80 -86 -80 -20 0 -41 15 -81 58 l-53 57 32 25 c18 14 46 37 63 52
16 15 32 27 35 27 3 0 24 -26 48 -58z"/>
<path d="M1495 1959 c-4 -6 -5 -12 -2 -15 2 -3 7 2 10 11 7 17 1 20 -8 4z"/>
<path d="M3715 1930 c-15 -17 -16 -23 -5 -33 10 -9 11 -9 6 1 -5 7 2 20 16 32
13 11 18 19 12 20 -6 0 -19 -9 -29 -20z"/>
<path d="M4119 1933 c-13 -16 -12 -17 4 -4 16 13 21 21 13 21 -2 0 -10 -8 -17
-17z"/>
<path d="M740 1917 c0 -22 32 -87 42 -87 5 0 6 -4 3 -10 -3 -5 -1 -10 4 -10 6
0 11 -8 12 -17 0 -10 3 -13 5 -6 3 6 -9 36 -26 67 -17 30 -31 58 -30 61 1 4
-1 9 -4 13 -3 3 -6 -2 -6 -11z"/>
<path d="M3675 1890 c-4 -6 -29 -29 -57 -50 -50 -40 -55 -50 -15 -29 31 17 99
89 84 89 -3 0 -9 -5 -12 -10z"/>
<path d="M4139 1883 c-13 -16 -12 -17 4 -4 16 13 21 21 13 21 -2 0 -10 -8 -17
-17z"/>
<path d="M4653 1843 c-15 -31 -36 -65 -45 -75 -19 -19 -24 -38 -9 -38 5 0 11
8 15 18 3 9 10 24 15 32 42 67 67 120 56 120 -2 0 -16 -26 -32 -57z"/>
<path d="M4004 1790 c0 -13 4 -16 10 -10 7 7 7 13 0 20 -6 6 -10 3 -10 -10z"/>
<path d="M3525 1767 c-41 -32 -184 -113 -214 -122 -29 -9 -90 -45 -77 -45 12
0 80 23 86 30 3 3 23 13 45 23 41 19 205 125 205 133 0 9 -17 2 -45 -19z"/>
<path d="M820 1766 c0 -8 6 -21 13 -28 6 -7 21 -30 32 -50 10 -21 21 -36 23
-34 4 5 -58 126 -64 126 -2 0 -4 -6 -4 -14z"/>
<path d="M3850 1737 c-129 -33 -186 -184 -90 -240 39 -23 58 -22 145 13 87 35
115 37 138 12 45 -50 -9 -138 -100 -164 -30 -9 -43 -18 -43 -30 0 -43 109 -1
165 65 47 54 49 110 6 156 -42 45 -70 44 -183 -1 -65 -27 -81 -30 -102 -20
-28 13 -41 49 -32 87 8 30 80 85 112 85 27 0 34 9 25 31 -5 13 -13 14 -41 6z"/>
<path d="M1725 1721 c-3 -6 3 -14 13 -20 14 -7 19 -6 19 4 0 7 -7 11 -15 7
-10 -3 -13 -1 -8 6 4 7 5 12 2 12 -3 0 -7 -4 -11 -9z"/>
<path d="M4290 1721 c0 -6 4 -13 10 -16 6 -3 7 1 4 9 -7 18 -14 21 -14 7z"/>
<path d="M4562 1695 c-19 -42 -14 -53 8 -17 22 36 24 42 12 42 -5 0 -14 -11
-20 -25z"/>
<path d="M1185 1681 c-3 -5 -2 -12 3 -15 5 -3 9 1 9 9 0 17 -3 19 -12 6z"/>
<path d="M1055 1670 c-4 -6 1 -7 11 -3 13 5 15 3 9 -7 -5 -9 -4 -11 4 -6 6 4
9 12 6 17 -8 12 -22 12 -30 -1z"/>
<path d="M1503 1561 c-183 -103 -191 -109 -168 -121 21 -11 29 -9 69 14 52 30
46 32 139 -42 44 -36 64 -58 59 -66 -5 -6 -14 -31 -21 -54 -11 -39 -10 -45 6
-57 20 -15 33 -11 33 12 0 8 25 101 56 205 43 149 53 193 43 204 -6 8 -14 14
-18 14 -3 0 -92 -49 -198 -109z m175 37 c-8 -13 -23 -55 -32 -93 -26 -106 -25
-105 -95 -50 -70 55 -74 44 49 115 41 24 77 47 79 52 1 5 5 7 8 4 3 -3 -1 -16
-9 -28z"/>
<path d="M900 1647 c0 -18 160 -221 168 -212 2 2 -2 11 -9 18 -8 8 -39 47 -69
87 -78 102 -89 116 -90 107z"/>
<path d="M4474 1573 c-110 -143 -268 -304 -367 -378 -15 -11 -29 -26 -32 -33
-3 -8 10 -1 29 14 18 16 51 44 73 61 36 30 144 137 225 224 18 20 47 55 63 79
17 24 40 55 53 68 19 22 29 42 19 42 -2 0 -30 -34 -63 -77z"/>
<path d="M3125 1573 c-44 -13 -115 -29 -158 -36 -48 -7 -72 -14 -63 -19 26
-15 287 49 314 77 8 8 -8 4 -93 -22z"/>
<path d="M3513 1508 l-112 -59 28 -47 c15 -26 61 -107 101 -180 40 -73 76
-132 80 -130 48 19 210 116 210 126 0 27 -30 21 -107 -23 -90 -50 -98 -52
-106 -27 -3 9 -19 41 -36 70 -17 28 -27 52 -22 52 5 0 44 19 86 41 67 36 75
43 62 56 -13 13 -23 10 -87 -26 -39 -23 -75 -41 -79 -41 -4 0 -22 27 -41 60
-18 32 -38 56 -43 53 -6 -3 -7 -1 -3 6 4 6 12 9 17 5 10 -6 179 82 179 94 -1
31 -22 26 -127 -30z"/>
<path d="M3460 1550 c-8 -5 -10 -10 -5 -10 6 0 17 5 25 10 8 5 11 10 5 10 -5
0 -17 -5 -25 -10z"/>
<path d="M3650 1556 c0 -2 8 -10 18 -17 15 -13 16 -12 3 4 -13 16 -21 21 -21
13z"/>
<path d="M4120 1555 c0 -5 5 -17 10 -25 5 -8 10 -10 10 -5 0 6 -5 17 -10 25
-5 8 -10 11 -10 5z"/>
<path d="M1845 1447 c-22 -45 -64 -126 -92 -181 -29 -55 -52 -100 -50 -101 1
0 48 -24 103 -53 56 -29 104 -52 107 -52 2 0 7 8 10 19 4 15 -12 27 -77 61
-44 24 -82 44 -84 45 -3 3 17 41 125 244 36 66 43 85 32 92 -26 16 -34 8 -74
-74z"/>
<path d="M3365 1460 c6 -30 16 -40 12 -12 -2 12 -6 24 -10 28 -3 4 -4 -4 -2
-16z"/>
<path d="M1078 1425 c-5 -6 152 -165 202 -205 17 -14 46 -37 63 -53 18 -15 55
-42 82 -59 28 -18 52 -35 55 -38 3 -3 16 -11 30 -19 l25 -14 -24 27 c-14 14
-28 26 -33 26 -15 0 -97 68 -90 76 4 4 1 4 -6 0 -8 -5 -22 2 -37 18 -13 14
-28 26 -33 26 -18 0 -203 190 -196 202 5 7 3 8 -6 3 -7 -4 -15 -2 -19 4 -4 6
-10 9 -13 6z"/>
<path d="M3737 1393 c3 -7 6 -13 8 -13 2 0 5 6 8 13 3 8 -1 14 -8 14 -7 0 -11
-6 -8 -14z"/>
<path d="M2078 1218 c-25 -101 -47 -190 -49 -198 -2 -9 4 -16 16 -17 18 -3 23
11 52 129 18 73 35 146 38 161 7 34 20 28 29 -14 3 -17 20 -75 37 -130 27 -83
35 -99 52 -99 19 0 219 184 210 193 -1 2 4 4 12 4 13 0 13 -2 1 -16 -12 -13
-53 -149 -80 -263 -3 -14 -9 -33 -12 -42 -5 -12 0 -16 18 -16 23 0 27 9 70
183 25 100 48 189 50 197 2 8 -5 16 -17 18 -14 2 -50 -28 -125 -103 -103 -104
-130 -122 -130 -87 0 9 -19 76 -43 147 -34 105 -46 131 -62 133 -19 3 -25 -15
-67 -180z"/>
<path d="M3868 1393 c7 -3 16 -2 19 1 4 3 -2 6 -13 5 -11 0 -14 -3 -6 -6z"/>
<path d="M3162 1363 c-66 -21 -81 -30 -76 -42 15 -36 114 -347 114 -358 0 -14
36 -18 44 -5 5 9 -32 124 -48 150 -9 15 -11 14 33 29 32 12 35 10 119 -52 86
-66 93 -69 125 -57 14 6 0 20 -65 67 -46 32 -91 59 -102 59 -18 0 -18 1 0 11
46 25 84 73 84 105 0 65 -58 121 -124 119 -12 0 -58 -12 -104 -26z m151 -27
c9 -7 22 -27 28 -45 15 -44 -7 -74 -73 -99 -29 -11 -60 -23 -69 -27 -13 -5
-19 4 -28 39 -6 24 -15 55 -20 68 -15 39 -14 41 41 59 65 21 98 22 121 5z"/>
<path d="M3222 1241 c-11 -6 -10 -10 4 -15 9 -3 19 -4 22 -1 3 3 -1 5 -9 5
-11 0 -11 2 1 10 8 5 11 10 5 10 -5 0 -16 -4 -23 -9z"/>
<path d="M2409 1313 c-13 -16 -12 -17 4 -4 9 7 17 15 17 17 0 8 -8 3 -21 -13z"/>
<path d="M2825 1297 c-21 -12 -54 -42 -73 -67 -33 -43 -34 -46 -30 -125 2 -69
7 -88 31 -124 61 -92 213 -111 316 -39 16 12 17 16 6 32 -13 17 -15 17 -44 -5
-48 -35 -144 -39 -191 -7 -46 30 -80 99 -80 159 0 51 26 98 73 133 22 16 42
21 90 20 34 -1 73 -3 87 -5 17 -3 25 1 28 12 8 42 -147 54 -213 16z"/>
<path d="M3980 1290 c-9 -6 -10 -10 -3 -10 6 0 15 5 18 10 8 12 4 12 -15 0z"/>
<path d="M3607 1279 c7 -7 15 -10 18 -7 3 3 -2 9 -12 12 -14 6 -15 5 -6 -5z"/>
<path d="M2725 1271 c-3 -5 -2 -12 3 -15 5 -3 9 1 9 9 0 17 -3 19 -12 6z"/>
<path d="M1526 1237 c3 -10 9 -15 12 -12 3 3 0 11 -7 18 -10 9 -11 8 -5 -6z"/>
<path d="M2323 1233 c0 -9 4 -10 14 -2 7 6 13 12 13 14 0 1 -6 2 -13 2 -8 0
-14 -6 -14 -14z"/>
<path d="M1593 1195 c0 -8 4 -12 9 -9 5 3 6 10 3 15 -9 13 -12 11 -12 -6z"/>
<path d="M2820 1190 c-9 -6 -10 -10 -3 -10 6 0 15 5 18 10 8 12 4 12 -15 0z"/>
<path d="M3370 1157 c0 -3 11 -12 23 -20 20 -13 24 -13 24 -1 0 8 -2 12 -5 9
-3 -2 -13 0 -23 6 -11 5 -19 8 -19 6z"/>
<path d="M1986 1137 c3 -10 9 -15 12 -12 3 3 0 11 -7 18 -10 9 -11 8 -5 -6z"/>
<path d="M4019 1126 c-14 -13 -39 -31 -55 -39 -16 -8 -53 -31 -81 -49 -29 -19
-110 -63 -180 -97 -70 -35 -136 -67 -146 -72 -31 -16 -191 -69 -209 -69 -10 0
-18 -5 -18 -12 0 -6 -3 -9 -6 -6 -3 3 -32 -2 -65 -12 -33 -10 -79 -20 -102
-21 -23 -1 -46 -5 -52 -8 -11 -6 -18 -7 -85 -15 -56 -7 -256 -24 -290 -24 -69
-1 -335 24 -360 34 -8 3 -40 8 -70 10 -30 3 -73 10 -95 16 -50 14 -62 17 -77
21 -7 1 -17 5 -23 9 -5 3 -26 9 -45 13 -19 4 -39 11 -45 15 -5 5 -30 13 -55
20 -42 11 -235 102 -360 170 -60 33 -64 34 -56 21 3 -5 29 -21 58 -36 29 -15
60 -33 69 -41 8 -8 18 -14 22 -14 3 0 39 -16 80 -35 41 -19 79 -35 85 -35 5 0
12 -3 14 -7 5 -12 243 -90 355 -117 57 -13 100 -20 97 -15 -3 5 0 9 5 9 6 0
11 -4 11 -9 0 -17 206 -36 385 -35 148 0 282 10 375 28 8 2 33 6 55 10 106 19
406 112 413 129 2 4 8 7 13 7 5 0 42 16 83 35 41 19 79 35 85 35 5 0 11 4 13
8 2 4 30 23 63 41 88 49 234 145 235 154 0 13 -15 7 -41 -17z"/>
<path d="M1965 1120 c3 -5 8 -10 11 -10 2 0 4 5 4 10 0 6 -5 10 -11 10 -5 0
-7 -4 -4 -10z"/>
<path d="M2165 1050 c-3 -6 1 -7 9 -4 18 7 21 14 7 14 -6 0 -13 -4 -16 -10z"/>
<path d="M2853 995 c0 -6 6 -12 12 -12 6 0 12 6 12 12 0 6 -6 12 -12 12 -6 0
-12 -6 -12 -12z"/>
<path d="M3101 947 c-8 -10 -7 -14 2 -14 8 0 14 6 14 14 0 7 -1 13 -2 13 -2 0
-8 -6 -14 -13z"/>
</g>
</svg>
